# xmcd CD database file
#
# Track frame offsets:
#	150
#	6765
#	36687
#	65630
#	89447
#	120745
#	149550
#	172260
#	196910
#	230145
#	252580
#	279857
#
# Disc length: 4174 seconds
#
# Revision: 0
# Processed by: cddbd v1.5PL3 Copyright (c) Steve Scherf et al.
# Submitted via: CDex 1.50beta8
#
DISCID=bc104c0c
DTITLE=GTS - RE-BIRTH2 disc2
DYEAR=2000
DGENRE=House
TTITLE0=THROUGH THE FIRE〈SUITE〉
TTITLE1=FANTASY〈SH CLUB MIX〉
TTITLE2=TAKE ME UP TO HEAVEN〈MALAWIAN BLUE MIX〉
TTITLE3=LITTLE BY LITTLE〈GTS MIX〉
TTITLE4=I STILL BELIEVE〈DJ-TURBO RAISE YOUR HANDS MIX〉
TTITLE5=HIGHER and HIGHER〈ANTHONY ACID HIGHER UPLIFT MIX〉_LET'S BOUNCE〈GTS MIX〉
TTITLE6=BLACK and RARE GROOVE〈GTS MIX〉
TTITLE7=SHARE MY JOY〈THUNDER DUB〉
TTITLE8=FUTURE CLASSICS〈ORIENTA-RHYTHM BANQUET MIX〉
TTITLE9=THE GREATEST LOVE OF ALL〈GTS MIX〉
TTITLE10=THROUGH THE FIRE<DJ-TURBO RAISE YOUR HANDS UP MIX>
TTITLE11=BRAND NEW WORLD<DJ-TURBO RAISE YOUR HANDS MIX>
EXTD=YEAR: 2000
EXTT0=
EXTT1=
EXTT2=
EXTT3=
EXTT4=
EXTT5=
EXTT6=
EXTT7=
EXTT8=
EXTT9=
EXTT10=
EXTT11=
PLAYORDER=
